# xmcd
#
# Track frame offsets: 
#        150
#        18989
#        36764
#        47549
#        62746
#        76333
#        86372
#        103370
#        121788
#        135836
#        155411
#        169907
#
# Disc length: 2450 seconds
#
# Revision: 0
# Processed by: cddbd v1.5.2PL0 Copyright (c) Steve Scherf et al.
# Submitted via: ExactAudioCopy v0.99pb4
#
DISCID=8b09900c
DTITLE=Delaney Davidson - Self Decapitation
DYEAR=2010
DGENRE=Blues
TTITLE0=Around The World
TTITLE1=Tonight
TTITLE2=In The Pines
TTITLE3=Little Heart
TTITLE4=Lackies Men
TTITLE5=Dirty Dozen
TTITLE6=Back In Hell
TTITLE7=Homeward Bound
TTITLE8=Seasons Of God
TTITLE9=I Slept Late
TTITLE10=Magpie Song
TTITLE11=Bridge Is Broke
EXTD=
EXTT0=
EXTT1=
EXTT2=
EXTT3=
EXTT4=
EXTT5=
EXTT6=
EXTT7=
EXTT8=
EXTT9=
EXTT10=
EXTT11=
PLAYORDER=
